<svg width="823" height="269" viewBox="0 0 823 269" fill="none" xmlns="http://www.w3.org/2000/svg">
<path d="M555.306 66.7981C561.091 66.7981 565.931 61.9877 565.931 55.828C565.931 49.6683 561.091 44.8578 555.306 44.8578C549.522 44.8578 544.682 49.6683 544.682 55.828C544.682 61.9877 549.522 66.7981 555.306 66.7981Z" stroke="white" stroke-width="8.48"/>
<path d="M550.352 0.057251H560.261V27.9426H550.352V0.057251Z" fill="white"/>
<path d="M500.805 50.7578H528.055V60.8979H500.805V50.7578Z" fill="white"/>
<path d="M582.557 50.7578H609.808V60.8979H582.557V50.7578Z" fill="white"/>
<path d="M570.936 32.412L590.205 12.6943L597.399 20.0556L578.13 39.7733L570.936 32.412Z" fill="white"/>
<path d="M513.239 20.0289L520.433 12.6676L539.702 32.3853L532.508 39.7466L513.239 20.0289Z" fill="white"/>
<path d="M66.3979 59.283H92.6879V133.771C92.6879 143.995 90.351 151.444 85.6772 156.118C81.1008 160.694 73.7007 162.982 63.4768 162.982H29.884C19.6601 162.982 12.2112 160.694 7.53744 156.118C2.96103 151.444 0.672821 143.995 0.672821 133.771V59.283H26.9628V133.771C26.9628 139.614 29.884 142.535 35.7262 142.535H57.6345C63.4768 142.535 66.3979 139.614 66.3979 133.771V59.283Z" fill="white"/>
<path d="M148.189 161.522C141.665 162.496 135.434 162.982 129.494 162.982C123.652 162.982 118.734 160.986 114.742 156.994C110.75 153.002 108.754 147.695 108.754 141.074V59.283H134.314V137.423C134.314 138.883 134.801 140.1 135.774 141.074C136.748 142.048 137.965 142.535 139.426 142.535H148.189V161.522Z" fill="white"/>
<path d="M209.578 161.522C200.133 162.496 190.883 162.982 181.827 162.982C175.206 162.982 169.9 160.986 165.907 156.994C161.915 153.002 159.919 147.695 159.919 141.074V103.83H151.156V84.1124H159.919L162.84 66.5857H185.479V84.1124H203.736V103.83H185.479V137.423C185.479 138.883 185.966 140.1 186.939 141.074C187.913 142.048 189.13 142.535 190.591 142.535H209.578V161.522Z" fill="white"/>
<path d="M264.412 105.29C258.277 105.29 251.948 106.751 245.424 109.672V161.522H219.865V84.1124H242.503L243.964 93.606C252.338 86.3033 261.101 82.6519 270.254 82.6519H276.826V105.29H264.412Z" fill="white"/>
<path d="M311.868 142.535C317.029 142.535 322.871 141.561 329.395 139.614V130.85H308.217C306.756 130.85 305.539 131.337 304.566 132.311C303.592 133.285 303.105 134.502 303.105 135.962V137.423C303.105 138.883 303.592 140.1 304.566 141.074C305.539 142.048 306.756 142.535 308.217 142.535H311.868ZM284.848 85.573C302.667 83.6256 318.733 82.6519 333.046 82.6519C339.668 82.6519 344.974 84.648 348.966 88.6402C352.959 92.6323 354.955 97.939 354.955 104.56V161.522H332.316L330.856 154.219C326.279 157.238 321.557 159.477 316.688 160.938C311.917 162.301 307.876 162.982 304.566 162.982H299.454C292.832 162.982 287.526 160.986 283.534 156.994C279.541 153.002 277.545 147.695 277.545 141.074V134.502C277.545 127.88 279.541 122.574 283.534 118.582C287.526 114.589 292.832 112.593 299.454 112.593H329.395V106.751C329.395 105.29 328.908 104.073 327.934 103.1C326.961 102.126 325.744 101.639 324.283 101.639C317.954 101.639 310.943 101.931 303.251 102.515C295.656 103.1 289.522 103.538 284.848 103.83V85.573Z" fill="white"/>
<path d="M369.52 59.283H427.943C437.485 59.283 444.496 61.4738 448.975 65.8555C453.454 70.1398 455.693 76.7123 455.693 85.573C455.693 91.4152 454.427 96.1864 451.896 99.8864C449.364 103.489 446.248 106.021 442.548 107.481C450.435 109.623 455.791 114.881 458.614 123.255C459.588 126.274 460.075 129.779 460.075 133.771C460.075 143.314 457.835 150.324 453.356 154.803C448.877 159.282 441.867 161.522 432.324 161.522H369.52V110.402V59.283ZM433.785 129.39C433.785 123.547 430.864 120.626 425.022 120.626H395.81V141.074H425.022C430.864 141.074 433.785 138.153 433.785 132.311V129.39ZM429.403 88.4941C429.403 82.6519 426.482 79.7308 420.64 79.7308H395.81V100.179H420.64C426.482 100.179 429.403 97.2574 429.403 91.4152V88.4941Z" fill="white"/>
<path d="M516.301 105.29C510.166 105.29 503.837 106.751 497.313 109.672V161.522H471.754V84.1124H494.392L495.853 93.606C504.227 86.3033 512.99 82.6519 522.143 82.6519H528.715V105.29H516.301Z" fill="white"/>
<path d="M571.066 87.0335V161.522H545.506V106.751H534.552V87.0335H571.066Z" fill="white"/>
<path d="M636.106 155.68C626.661 157.627 618.385 158.601 611.277 158.601H606.165C599.544 158.601 594.237 156.605 590.245 152.613C586.253 148.62 584.256 143.314 584.256 136.692V107.481C584.256 100.179 586.301 94.4824 590.391 90.3928C594.578 86.2059 600.323 84.1124 607.625 84.1124H661.666V165.904C661.666 172.525 659.67 177.831 655.678 181.824C651.686 185.816 646.379 187.812 639.758 187.812C624.47 187.812 607.431 186.838 588.638 184.891V165.904C607.236 167.364 621.355 168.094 630.994 168.094C632.455 168.094 633.672 167.608 634.646 166.634C635.619 165.66 636.106 164.443 636.106 162.982V155.68ZM618.58 138.883C624.714 138.883 630.556 138.396 636.106 137.423V103.83H615.658C611.764 103.83 609.816 105.777 609.816 109.672V133.771C609.816 135.232 610.303 136.449 611.277 137.423C612.25 138.396 613.468 138.883 614.928 138.883H618.58Z" fill="white"/>
<path d="M701.848 85.573C711.293 83.6256 719.57 82.6519 726.678 82.6519H733.25C739.872 82.6519 745.178 84.648 749.17 88.6402C753.163 92.6323 755.159 97.939 755.159 104.56V161.522H729.599V107.481C729.599 106.021 729.112 104.804 728.138 103.83C727.165 102.856 725.948 102.369 724.487 102.369H719.375C715.675 102.369 712.267 102.564 709.151 102.954C706.133 103.343 703.698 103.635 701.848 103.83V161.522H676.289V59.283H701.848V85.573Z" fill="white"/>
<path d="M822.327 161.522C812.882 162.496 803.632 162.982 794.577 162.982C787.955 162.982 782.649 160.986 778.657 156.994C774.664 153.002 772.668 147.695 772.668 141.074V103.83H763.905V84.1124H772.668L775.589 66.5857H798.228V84.1124H816.485V103.83H798.228V137.423C798.228 138.883 798.715 140.1 799.689 141.074C800.662 142.048 801.879 142.535 803.34 142.535H822.327V161.522Z" fill="white"/>
<path d="M219.291 225.36C228.936 225.888 235.466 226.152 238.88 226.152C239.69 226.152 240.323 225.923 240.781 225.466C241.274 224.973 241.52 224.322 241.52 223.512V218.76H229.376C225.68 218.76 222.987 217.933 221.298 216.279C219.643 214.589 218.816 211.896 218.816 208.2V206.616C218.816 202.92 219.643 200.245 221.298 198.591C222.987 196.901 225.68 196.056 229.376 196.056H247.909V203.448H231.488C229.376 203.448 228.32 204.504 228.32 206.616V207.672C228.32 209.784 229.376 210.84 231.488 210.84H240.992C244.442 210.84 246.976 211.65 248.595 213.269C250.215 214.888 251.024 217.423 251.024 220.872V223.512C251.024 226.962 250.215 229.496 248.595 231.115C246.976 232.735 244.442 233.544 240.992 233.544C239.197 233.544 237.296 233.509 235.29 233.439L230.432 233.227C226.842 233.051 223.128 232.805 219.291 232.488V225.36ZM284.812 206.088C284.812 203.976 283.756 202.92 281.644 202.92H272.668C270.556 202.92 269.5 203.976 269.5 206.088V222.984C269.5 225.096 270.556 226.152 272.668 226.152H281.644C283.756 226.152 284.812 225.096 284.812 222.984V206.088ZM294.316 222.984C294.316 226.68 293.471 229.373 291.782 231.063C290.127 232.717 287.452 233.544 283.756 233.544H270.556C266.86 233.544 264.167 232.717 262.478 231.063C260.823 229.373 259.996 226.68 259.996 222.984V206.088C259.996 202.392 260.823 199.717 262.478 198.063C264.167 196.373 266.86 195.528 270.556 195.528H283.756C287.452 195.528 290.127 196.373 291.782 198.063C293.471 199.717 294.316 202.392 294.316 206.088V222.984ZM314.405 225.624H333.677V233.016H304.901V196.056H314.405V225.624ZM366.425 196.056H375.929V222.984C375.929 226.68 375.085 229.373 373.395 231.063C371.741 232.717 369.065 233.544 365.369 233.544H353.225C349.529 233.544 346.837 232.717 345.147 231.063C343.493 229.373 342.665 226.68 342.665 222.984V196.056H352.169V222.984C352.169 225.096 353.225 226.152 355.337 226.152H363.257C365.369 226.152 366.425 225.096 366.425 222.984V196.056ZM405.498 233.016H395.994V203.448H384.906V196.056H416.586V203.448H405.498V233.016ZM442.992 233.016H423.984V225.624H428.736V203.448H423.984V196.056H442.992V203.448H438.24V225.624H442.992V233.016ZM476.78 206.088C476.78 203.976 475.724 202.92 473.612 202.92H464.636C462.524 202.92 461.468 203.976 461.468 206.088V222.984C461.468 225.096 462.524 226.152 464.636 226.152H473.612C475.724 226.152 476.78 225.096 476.78 222.984V206.088ZM486.284 222.984C486.284 226.68 485.439 229.373 483.749 231.063C482.095 232.717 479.42 233.544 475.724 233.544H462.524C458.828 233.544 456.135 232.717 454.445 231.063C452.791 229.373 451.964 226.68 451.964 222.984V206.088C451.964 202.392 452.791 199.717 454.445 198.063C456.135 196.373 458.828 195.528 462.524 195.528H475.724C479.42 195.528 482.095 196.373 483.749 198.063C485.439 199.717 486.284 202.392 486.284 206.088V222.984ZM529.077 233.016H519.045L506.373 210.84V233.016H496.869V196.056H506.901L519.573 218.232V196.056H529.077V233.016ZM539.609 225.36C549.253 225.888 555.783 226.152 559.197 226.152C560.007 226.152 560.641 225.923 561.098 225.466C561.591 224.973 561.837 224.322 561.837 223.512V218.76H549.693C545.997 218.76 543.305 217.933 541.615 216.279C539.961 214.589 539.133 211.896 539.133 208.2V206.616C539.133 202.92 539.961 200.245 541.615 198.591C543.305 196.901 545.997 196.056 549.693 196.056H568.226V203.448H551.805C549.693 203.448 548.637 204.504 548.637 206.616V207.672C548.637 209.784 549.693 210.84 551.805 210.84H561.309C564.759 210.84 567.293 211.65 568.913 213.269C570.532 214.888 571.341 217.423 571.341 220.872V223.512C571.341 226.962 570.532 229.496 568.913 231.115C567.293 232.735 564.759 233.544 561.309 233.544C559.514 233.544 557.613 233.509 555.607 233.439L550.749 233.227C547.159 233.051 543.445 232.805 539.609 232.488V225.36Z" fill="#A981FF"/>
</svg>
